<svg id="Layer_1" data-name="Layer 1" xmlns="http://www.w3.org/2000/svg" viewBox="0 0 1888.89 304.66"><defs><style>.cls-1{font-size:222px;fill:#282828;font-family:Bilo-Medium, Bilo;font-weight:500;letter-spacing:-0.02em;}.cls-2{letter-spacing:-0.01em;}.cls-3{letter-spacing:-0.01em;}.cls-4{letter-spacing:-0.01em;}.cls-5{letter-spacing:-0.01em;}.cls-6{letter-spacing:0em;}.cls-7{fill:#f49a60;}.cls-8{fill:#efefef;}.cls-9{fill:#f4901e;stroke:#c63d1a;stroke-miterlimit:10;stroke-width:0.32px;}.cls-10{font-size:121.33px;fill:#f9f9f9;font-family:Alga-Bold, Alga;font-weight:700;}</style></defs><text class="cls-1" transform="translate(243.82 184.26)">P<tspan class="cls-2" x="122.99" y="0">ow</tspan><tspan class="cls-3" x="406.71" y="0">er C</tspan><tspan class="cls-4" x="801.42" y="0">l</tspan><tspan class="cls-5" x="855.59" y="0">o</tspan><tspan class="cls-6" x="974.58" y="0">thing</tspan></text><circle class="cls-7" cx="99.7" cy="108.44" r="99.7"/><path class="cls-8" d="M184.94,682.53c-27.18-8.47-50.51-9.07-78.09-2-2-6.48-3-9.71-5.08-16.19,30.91-8.14,58.62-7.44,89.08,2.27C188.49,673,187.31,676.17,184.94,682.53Z" transform="translate(-44.31 -623.44)"/><path class="cls-8" d="M109.83,683.3,92,682.84a1.15,1.15,0,0,1-1.13-1.19l5.41-5.91-5.1-6.18a1.15,1.15,0,0,1,1.19-1.13l17.87.46a1.15,1.15,0,0,1,1.13,1.19l-.3,12.09A1.17,1.17,0,0,1,109.83,683.3Z" transform="translate(-44.31 -623.44)"/><path class="cls-8" d="M181.44,685.12l17.87.46a1.16,1.16,0,0,0,1.19-1.13l-5.1-6.18,5.41-5.91a1.15,1.15,0,0,0-1.13-1.19l-17.88-.46a1.16,1.16,0,0,0-1.19,1.13l-.31,12.09A1.17,1.17,0,0,0,181.44,685.12Z" transform="translate(-44.31 -623.44)"/><path class="cls-9" d="M111.5,671.56l.62,2.35.87-.23,0,.15c-1.25.32-2.5.66-3.75,1l0-.15.77-.21-1.68-6-1-.25c1.1-.31,2.19-.61,3.29-.89,2.5-.65,3.85-.05,4.12,1.11C115,669.83,113.85,670.93,111.5,671.56Zm-1-4c.34,1.29.68,2.59,1,3.89.86-.23,1.24-1.14.92-2.41s-1-1.72-1.82-1.51Z" transform="translate(-44.31 -623.44)"/><path class="cls-9" d="M115.28,670.78a2.55,2.55,0,0,1,2.21-3c1.67-.35,3.05.37,3.33,1.85a2.53,2.53,0,0,1-2.29,3A2.64,2.64,0,0,1,115.28,670.78Zm4.58.75c-.15-.8-2.42-3.4-3.32-3.2a.4.4,0,0,0-.3.55c.21.91,2.52,3.36,3.31,3.21C119.81,672,119.92,671.85,119.86,671.53Z" transform="translate(-44.31 -623.44)"/><path class="cls-9" d="M129.62,666l-.62.55q-.92,2.31-1.74,4.65l-.24,0c-.59-1-1.18-2-1.79-3-.4,1.14-.78,2.28-1.15,3.43l-.24,0q-1.36-2-2.78-4l-.77-.33c1.18-.22,2.35-.43,3.52-.62l-.6.57c.46.8.9,1.61,1.34,2.41l.42-1.95-.58-.94q.94-.35,1.89-.66c.51,1,1,2,1.5,3.08.23-.9.46-1.81.7-2.72l-.84-.36Z" transform="translate(-44.31 -623.44)"/><path class="cls-9" d="M134.33,669.34a2.31,2.31,0,0,1-1.9,1.15,2.5,2.5,0,1,1-.5-5c1-.1,1.67.37,1.73,1.07s-.51,1.54-1.66,2.1a3.08,3.08,0,0,0,2,.7,1.36,1.36,0,0,0,.29-.06Zm-3.67-2.78a3.27,3.27,0,0,0,1.27,2.08,1.81,1.81,0,0,0,.27-1.26c-.09-.83-.75-1.47-1.19-1.43C130.75,666,130.62,666.21,130.66,666.56Z" transform="translate(-44.31 -623.44)"/><path class="cls-9" d="M138.74,665c0,.84.09,1.69.14,2.54h0c-1.11-1-1.61-1.26-2-1.18l.24,3.46.74,0v.15c-1.07.07-2.14.14-3.21.24V670l.49,0c-.09-1.16-.19-2.31-.28-3.47l-.62-.42c.85-.35,1.7-.69,2.56-1l.08,1.19a2.72,2.72,0,0,1,1.64-1.27A.58.58,0,0,1,138.74,665Z" transform="translate(-44.31 -623.44)"/><path class="cls-9" d="M141.59,666.08c-.08-2.06,1.37-3.48,3.66-3.49a5.81,5.81,0,0,1,2.72.59c-.32,1.11-.63,2.23-.93,3.34h0c-1.53-2.86-2.39-3.49-3.12-3.48-.46,0-.81.34-.79,1.11a4.62,4.62,0,0,0,4.29,4.43,2.25,2.25,0,0,0,.82-.12h0a3.26,3.26,0,0,1-2.76,1.41A3.72,3.72,0,0,1,141.59,666.08Z" transform="translate(-44.31 -623.44)"/><path class="cls-9" d="M148.56,669.55h.5l.12-5.71-.58-.48c.89-.27,1.79-.54,2.69-.79l-.25,7,.49,0v.15c-1,0-2-.07-3-.08Z" transform="translate(-44.31 -623.44)"/><path class="cls-9" d="M152.05,667.38a2.54,2.54,0,0,1,2.92-2.31c1.7.1,2.83,1.17,2.7,2.67a2.52,2.52,0,0,1-3,2.31A2.63,2.63,0,0,1,152.05,667.38Zm4.19,1.94c.07-.81-1.42-3.92-2.33-4-.25,0-.42.15-.43.45,0,.93,1.52,3.92,2.32,4C156.07,669.8,156.22,669.65,156.24,669.32Z" transform="translate(-44.31 -623.44)"/><path class="cls-9" d="M162.18,669.75a2.25,2.25,0,0,1-2,.76c-1.17-.12-1.57-.83-1.46-2.07.08-.91.17-1.81.25-2.72l-.79-.07h0c1-.61,2-1.22,3-1.81l-.21,1.94,1.44.16,0,.15-1.44-.16-.23,2.23c-.12,1.1.1,1.54.83,1.62a1.51,1.51,0,0,0,.6,0Z" transform="translate(-44.31 -623.44)"/><path class="cls-9" d="M168.32,671.36l0,.15-2.85-.44,0-.15.39.06.42-2.86c.11-.74,0-1-.46-1.08a1.54,1.54,0,0,0-.63.06l-.51,3.71.39.05,0,.15-2.85-.37,0-.15.49.06q.36-2.84.7-5.67l-.53-.54c.92-.18,1.84-.35,2.77-.51-.15,1-.29,2.09-.44,3.14a3.1,3.1,0,0,1,2.07-.62c.86.13,1.23.71,1.07,1.67s-.35,2.17-.53,3.26Z" transform="translate(-44.31 -623.44)"/><path class="cls-9" d="M168.68,671.42l.49.09.6-3.46-.49-.56c.91-.14,1.82-.27,2.74-.38-.3,1.58-.59,3.16-.89,4.75l.49.09,0,.15-2.93-.53Zm1.42-5.92a1.15,1.15,0,1,1,.94,1.26A1,1,0,0,1,170.1,665.5Z" transform="translate(-44.31 -623.44)"/><path class="cls-9" d="M178,673.34l0,.15c-.94-.23-1.87-.44-2.81-.65l0-.15.39.08.63-2.81c.16-.73,0-1-.38-1.11a1.67,1.67,0,0,0-.63,0c-.26,1.22-.53,2.44-.79,3.66l.39.08,0,.15-2.82-.58,0-.15.48.1.69-3.44-.48-.57c.91-.12,1.83-.22,2.76-.32-.07.31-.14.63-.2.94a3.13,3.13,0,0,1,2.11-.47c.85.2,1.18.8.95,1.75s-.51,2.14-.77,3.21Z" transform="translate(-44.31 -623.44)"/><path class="cls-9" d="M185.1,669.8l-.44,1.51h0a6.37,6.37,0,0,0-1.37-1.07,1.73,1.73,0,0,1,.31,1.64,2,2,0,0,1-2.66,1.24,2.8,2.8,0,0,1-1.31-.74c-.23.5,0,1,.81,1.19l1.11.29c1.13.31,1.64.82,1.41,1.62-.31,1-1.67,1.39-3.41.94-1.39-.36-2-.8-1.86-1.39.06-.28.36-.48.8-.53a1.13,1.13,0,0,1-.11-.89,2.12,2.12,0,0,1,1.18-1.32,1.74,1.74,0,0,1-.36-1.58c.25-1,1.3-1.65,2.75-1.26a2.63,2.63,0,0,1,1.24.67c.61-.12,1.23-.22,1.91-.34Zm-6.58,4.76a1.9,1.9,0,0,0,1.64,1.77c.73.2,1.38.1,1.47-.24s-.18-.4-.94-.61l-1-.27A2,2,0,0,1,178.52,674.56Zm3.67-1.82a3.44,3.44,0,0,0-.19-1.63c-.32-1.13-.59-1.53-.9-1.61a.38.38,0,0,0-.49.31,3.6,3.6,0,0,0,.21,1.62c.31,1.14.6,1.54.89,1.61A.36.36,0,0,0,182.19,672.74Z" transform="translate(-44.31 -623.44)"/><text class="cls-10" transform="translate(69.87 160.84)">P</text></svg>