<svg id="Layer_1" data-name="Layer 1" xmlns="http://www.w3.org/2000/svg" viewBox="0 0 199.4 229.75"><defs><style>.cls-1{fill:#f49a60;}.cls-2{fill:#efefef;}.cls-3{fill:#f4901e;stroke:#c63d1a;stroke-miterlimit:10;stroke-width:0.32px;}.cls-4{font-size:121.33px;fill:#f9f9f9;font-family:Alga-Bold, Alga;font-weight:700;}</style></defs><circle class="cls-1" cx="99.7" cy="99.7" r="99.7"/><path class="cls-2" d="M1040.93,685.47c-27.18-8.47-50.51-9.06-78.09-2-2-6.47-3.05-9.71-5.09-16.19,30.92-8.14,58.63-7.44,89.09,2.27C1044.48,675.93,1043.3,679.11,1040.93,685.47Z" transform="translate(-900.3 -635.13)"/><path class="cls-2" d="M965.82,686.24,948,685.78a1.15,1.15,0,0,1-1.13-1.19l5.41-5.91-5.11-6.18a1.16,1.16,0,0,1,1.19-1.13l17.88.46a1.15,1.15,0,0,1,1.13,1.19L967,685.11A1.16,1.16,0,0,1,965.82,686.24Z" transform="translate(-900.3 -635.13)"/><path class="cls-2" d="M1037.43,688.06l17.87.46a1.15,1.15,0,0,0,1.19-1.13l-5.1-6.18,5.41-5.91a1.15,1.15,0,0,0-1.13-1.19l-17.88-.46a1.17,1.17,0,0,0-1.19,1.13l-.31,12.09A1.16,1.16,0,0,0,1037.43,688.06Z" transform="translate(-900.3 -635.13)"/><path class="cls-3" d="M967.49,674.5c.21.78.41,1.56.61,2.35l.87-.23,0,.15c-1.25.32-2.51.66-3.75,1l0-.14.77-.22c-.55-2-1.11-4-1.67-6l-1-.25c1.09-.31,2.19-.61,3.29-.89,2.5-.65,3.85,0,4.12,1.11C971,672.77,969.84,673.87,967.49,674.5Zm-1-4,1,3.89c.85-.23,1.24-1.14.92-2.41s-1-1.72-1.82-1.51Z" transform="translate(-900.3 -635.13)"/><path class="cls-3" d="M971.27,673.73a2.55,2.55,0,0,1,2.21-3c1.67-.35,3,.37,3.33,1.85a2.53,2.53,0,0,1-2.29,3A2.63,2.63,0,0,1,971.27,673.73Zm4.57.74c-.14-.79-2.42-3.4-3.31-3.2a.4.4,0,0,0-.3.55c.21.91,2.52,3.37,3.31,3.21C975.8,675,975.91,674.79,975.84,674.47Z" transform="translate(-900.3 -635.13)"/><path class="cls-3" d="M985.61,668.91l-.62.55q-.91,2.32-1.75,4.65l-.23,0c-.59-1-1.19-2-1.79-3-.4,1.14-.78,2.28-1.15,3.43l-.24,0q-1.37-2-2.79-4l-.76-.33c1.17-.22,2.35-.43,3.52-.62l-.6.58c.45.8.9,1.6,1.34,2.4l.42-2-.58-.94,1.89-.66c.51,1,1,2.05,1.5,3.08.23-.9.46-1.81.7-2.71l-.84-.37Z" transform="translate(-900.3 -635.13)"/><path class="cls-3" d="M990.32,672.28a2.33,2.33,0,0,1-1.91,1.15,2.45,2.45,0,0,1-2.82-2.13,2.47,2.47,0,0,1,2.32-2.84c1-.1,1.68.37,1.74,1.07s-.51,1.54-1.66,2.1a3.08,3.08,0,0,0,2,.7,1.36,1.36,0,0,0,.29-.06Zm-3.67-2.78a3.27,3.27,0,0,0,1.27,2.08,1.86,1.86,0,0,0,.27-1.26c-.09-.83-.75-1.47-1.19-1.42C986.74,668.92,986.61,669.15,986.65,669.5Z" transform="translate(-900.3 -635.13)"/><path class="cls-3" d="M994.73,668c0,.85.09,1.69.14,2.54h0c-1.11-1-1.61-1.26-2-1.18l.24,3.46.74,0v.15l-3.21.24V673l.49,0c-.09-1.16-.19-2.31-.28-3.47l-.62-.42c.84-.35,1.7-.69,2.56-1,0,.4,0,.79.08,1.19a2.72,2.72,0,0,1,1.64-1.27A.58.58,0,0,1,994.73,668Z" transform="translate(-900.3 -635.13)"/><path class="cls-3" d="M997.58,669c-.08-2.06,1.37-3.48,3.66-3.49a5.94,5.94,0,0,1,2.72.59c-.32,1.11-.63,2.23-.93,3.34h0c-1.53-2.86-2.4-3.49-3.13-3.48-.45,0-.8.34-.78,1.11a4.6,4.6,0,0,0,4.29,4.43,2.25,2.25,0,0,0,.82-.12h0a3.26,3.26,0,0,1-2.76,1.41A3.72,3.72,0,0,1,997.58,669Z" transform="translate(-900.3 -635.13)"/><path class="cls-3" d="M1004.55,672.49h.5l.12-5.71-.58-.48,2.69-.79c-.09,2.35-.17,4.69-.25,7l.49,0v.15c-1,0-2-.07-3-.08Z" transform="translate(-900.3 -635.13)"/><path class="cls-3" d="M1008,670.32A2.54,2.54,0,0,1,1011,668c1.7.11,2.83,1.17,2.7,2.67a2.52,2.52,0,0,1-3,2.31A2.63,2.63,0,0,1,1008,670.32Zm4.19,1.94c.07-.81-1.42-3.92-2.33-4-.26,0-.42.15-.43.45,0,.94,1.52,3.92,2.32,4C1012.05,672.74,1012.2,672.59,1012.23,672.26Z" transform="translate(-900.3 -635.13)"/><path class="cls-3" d="M1018.17,672.69a2.26,2.26,0,0,1-2,.76c-1.17-.12-1.57-.83-1.46-2.07.08-.91.16-1.81.25-2.72l-.79-.07h0c1-.61,2-1.21,3.05-1.81l-.21,1.94,1.44.16,0,.16-1.44-.17c-.08.75-.16,1.49-.23,2.23-.12,1.11.1,1.54.83,1.63a1.72,1.72,0,0,0,.6,0Z" transform="translate(-900.3 -635.13)"/><path class="cls-3" d="M1024.31,674.3l0,.15-2.84-.44,0-.15.39.06.42-2.86c.11-.74,0-1-.46-1.08a1.54,1.54,0,0,0-.63.06l-.51,3.71.39,0,0,.16c-.95-.14-1.9-.26-2.85-.38l0-.15.49.06q.36-2.84.7-5.67c-.17-.18-.35-.36-.53-.53.92-.19,1.84-.36,2.77-.52-.15,1.05-.29,2.09-.44,3.14a3.1,3.1,0,0,1,2.07-.62c.86.13,1.23.71,1.07,1.67s-.35,2.18-.53,3.26Z" transform="translate(-900.3 -635.13)"/><path class="cls-3" d="M1024.67,674.36l.49.09.6-3.46c-.17-.18-.33-.37-.5-.56.92-.14,1.83-.26,2.75-.38-.3,1.58-.6,3.17-.89,4.75l.48.09,0,.15-2.94-.53Zm1.41-5.92a1,1,0,0,1,1.33-.85,1.07,1.07,0,1,1-.38,2.11A1,1,0,0,1,1026.08,668.44Z" transform="translate(-900.3 -635.13)"/><path class="cls-3" d="M1034,676.28l0,.15c-.94-.23-1.87-.44-2.81-.65l0-.15.39.09.63-2.82c.16-.73,0-1-.38-1.11a1.67,1.67,0,0,0-.63,0c-.26,1.22-.53,2.44-.79,3.66l.39.08,0,.15-2.82-.58,0-.15.49.1.69-3.44-.48-.57c.91-.12,1.83-.22,2.76-.32l-.21.94a3.17,3.17,0,0,1,2.12-.47c.85.2,1.18.8,1,1.75s-.51,2.14-.77,3.21Z" transform="translate(-900.3 -635.13)"/><path class="cls-3" d="M1041.08,672.74c-.14.5-.29,1-.43,1.51h0a6.63,6.63,0,0,0-1.37-1.07,1.73,1.73,0,0,1,.31,1.64,2,2,0,0,1-2.66,1.24,2.8,2.8,0,0,1-1.31-.74c-.24.5,0,1,.81,1.19l1.11.29c1.12.31,1.64.82,1.41,1.62-.31,1.05-1.67,1.39-3.41.94-1.39-.36-2-.8-1.86-1.39.06-.28.36-.48.79-.53a1.13,1.13,0,0,1-.1-.89,2.12,2.12,0,0,1,1.18-1.32,1.74,1.74,0,0,1-.36-1.58c.25-1,1.29-1.65,2.75-1.26a2.68,2.68,0,0,1,1.24.67c.61-.12,1.23-.22,1.91-.34Zm-6.57,4.77a1.92,1.92,0,0,0,1.64,1.77c.73.19,1.38.09,1.47-.25s-.18-.4-.94-.61l-1-.27A2,2,0,0,1,1034.51,677.51Zm3.67-1.83a3.44,3.44,0,0,0-.19-1.63c-.32-1.13-.59-1.53-.9-1.61a.38.38,0,0,0-.49.31,3.6,3.6,0,0,0,.21,1.62c.31,1.14.6,1.54.89,1.61A.36.36,0,0,0,1038.18,675.68Z" transform="translate(-900.3 -635.13)"/><text class="cls-4" transform="translate(69.87 152.09)">P</text></svg>