<svg id="Layer_1" data-name="Layer 1" xmlns="http://www.w3.org/2000/svg" viewBox="0 0 1189.81 1370.89"><defs><style>.cls-1{fill:#f49a60;}.cls-2{fill:#efefef;}.cls-3{fill:#f4901e;stroke:#c63d1a;stroke-miterlimit:10;stroke-width:1.91px;}.cls-4{font-size:723.99px;fill:#f9f9f9;font-family:Alga-Bold, Alga;font-weight:700;}</style></defs><circle class="cls-1" cx="594.91" cy="594.91" r="594.91"/><path class="cls-2" d="M1244.25,447.08c-151.07-54.42-312.32-58.53-466-11.88l-30.36-96.64c175-53.35,359.55-48.65,531.57,13.55Z" transform="translate(-405.09 -146.66)"/><path class="cls-2" d="M796.06,451.64,689.4,448.92a6.93,6.93,0,0,1-6.75-7.11L715,406.54l-30.47-36.86a7,7,0,0,1,7.12-6.76l106.66,2.72a6.94,6.94,0,0,1,6.75,7.11l-1.84,72.13A6.93,6.93,0,0,1,796.06,451.64Z" transform="translate(-405.09 -146.66)"/><path class="cls-2" d="M1223.32,462.53,1330,465.25a6.94,6.94,0,0,0,7.11-6.76l-30.46-36.86,32.3-35.26a7,7,0,0,0-6.76-7.12l-106.66-2.71a6.93,6.93,0,0,0-7.11,6.75l-1.84,72.13A6.94,6.94,0,0,0,1223.32,462.53Z" transform="translate(-405.09 -146.66)"/><path class="cls-3" d="M806,381.57q1.83,7,3.67,14l5.18-1.34c.08.3.15.6.23.89q-11.24,2.87-22.41,6c-.08-.29-.16-.59-.25-.88L797,399l-10-35.86q-3.09-.75-6.19-1.47,9.78-2.79,19.62-5.35c14.92-3.85,23-.25,24.55,6.64C826.88,371.26,820,377.81,806,381.57Zm-6.29-24.1,6.06,23.22c5.09-1.39,7.36-6.79,5.49-14.35-1.81-7.28-6-10.3-10.88-9Z" transform="translate(-405.09 -146.66)"/><path class="cls-3" d="M828.54,377c-1.87-8,3.37-15.91,13.2-18s18.2,2.22,19.83,11.06c1.53,8.23-2.66,15.78-13.65,18.07C839.59,389.85,830.65,385.94,828.54,377Zm27.29,4.45c-.86-4.74-14.43-20.29-19.78-19.1-1.5.32-2.18,1.53-1.79,3.26,1.28,5.45,15,20.1,19.75,19.18C855.58,384.44,856.21,383.32,855.83,381.41Z" transform="translate(-405.09 -146.66)"/><path class="cls-3" d="M914.12,348.23l-3.72,3.28Q905,365.36,900,379.25l-1.4.2q-5.25-8.91-10.69-17.75-3.52,10.21-6.83,20.47l-1.46.24Q871.5,370.53,863,358.82l-4.54-2q10.49-2,21-3.69l-3.59,3.44q4.05,7.15,8,14.35,1.21-5.82,2.49-11.64c-1.15-1.87-2.3-3.73-3.47-5.6q5.63-2,11.29-4,4.55,9.18,8.94,18.4,2-8.1,4.2-16.21l-5-2.17C906.23,349.21,910.17,348.7,914.12,348.23Z" transform="translate(-405.09 -146.66)"/><path class="cls-3" d="M942.21,368.35c-2.17,3.87-5.91,6.27-11.37,6.83-8.25.85-15.73-3.88-16.83-12.69-1-8.28,4.07-15.93,13.85-16.94,5.73-.58,10,2.2,10.35,6.37.42,4.73-3.05,9.22-9.92,12.53,3.73,2.83,8.19,4.52,12.15,4.17a7.64,7.64,0,0,0,1.7-.33ZM920.3,351.78c.54,4.72,3.66,9.21,7.6,12.36a10.81,10.81,0,0,0,1.58-7.47c-.49-5-4.45-8.81-7.07-8.52C920.83,348.32,920.06,349.68,920.3,351.78Z" transform="translate(-405.09 -146.66)"/><path class="cls-3" d="M968.54,342.49l.81,15.16h-.06c-6.6-6.24-9.58-7.52-11.66-7q.69,10.35,1.39,20.68l4.42-.28c0,.3,0,.61,0,.91q-9.57.6-19.13,1.41c0-.3-.05-.61-.08-.91l3-.25q-.86-10.35-1.7-20.72l-3.68-2.5q7.57-3.12,15.25-6.11l.48,7.14c3.16-4.52,7-7.44,9.79-7.59A3.71,3.71,0,0,1,968.54,342.49Z" transform="translate(-405.09 -146.66)"/><path class="cls-3" d="M985.51,348.87c-.46-12.29,8.22-20.73,21.87-20.83a35.23,35.23,0,0,1,16.22,3.55q-2.85,9.95-5.56,19.93H1018c-9.12-17-14.27-20.81-18.64-20.75-2.72,0-4.78,2-4.68,6.62.41,14.59,13,26.27,25.62,26.4a14.13,14.13,0,0,0,4.89-.68l.06.06c-3,4.87-9.39,8.35-16.51,8.39C995.23,371.64,986,362.39,985.51,348.87Z" transform="translate(-405.09 -146.66)"/><path class="cls-3" d="M1027.13,369.61l3,.06.72-34.07-3.46-2.87q8-2.44,16.06-4.73-.77,21-1.51,42l2.95.11c0,.3,0,.61,0,.91q-8.85-.34-17.69-.5Z" transform="translate(-405.09 -146.66)"/><path class="cls-3" d="M1048,356.66c.32-8.17,7.44-14.44,17.42-13.81s16.88,7,16.09,15.94c-.72,8.34-6.75,14.5-17.91,13.78C1055.13,372,1047.6,365.88,1048,356.66Zm25,11.56c.43-4.8-8.45-23.4-13.9-23.68-1.53-.09-2.49.9-2.59,2.67-.21,5.59,9.1,23.39,13.85,23.75C1071.9,371.07,1072.8,370.17,1073,368.22Z" transform="translate(-405.09 -146.66)"/><path class="cls-3" d="M1108.39,370.79c-2.59,3.09-6.73,5.08-12.13,4.52-7-.72-9.37-4.94-8.7-12.36q.75-8.1,1.49-16.2l-4.68-.42v-.05q9-5.49,18.16-10.79l-1.23,11.56c2.86.3,5.71.62,8.57,1,0,.3-.08.61-.11.91q-4.27-.51-8.56-1-.71,6.63-1.42,13.27c-.7,6.61.64,9.21,5,9.71a9.06,9.06,0,0,0,3.56-.22Z" transform="translate(-405.09 -146.66)"/><path class="cls-3" d="M1145,380.4l-.15.91q-8.46-1.41-17-2.64c0-.3.09-.6.13-.9l2.34.34,2.52-17.06c.65-4.41-.27-6.06-2.75-6.41a9.23,9.23,0,0,0-3.73.34q-1.55,11.06-3.07,22.12l2.35.33c0,.3-.09.6-.13.91q-8.49-1.2-17-2.23c0-.3.07-.6.11-.9l2.93.35q2.1-16.9,4.18-33.81c-1-1.08-2.1-2.15-3.15-3.21q8.19-1.62,16.48-3.07-1.29,9.36-2.59,18.71c4.36-2.63,8.21-4.32,12.33-3.7,5.16.8,7.34,4.24,6.39,10q-1.57,9.72-3.16,19.44Z" transform="translate(-405.09 -146.66)"/><path class="cls-3" d="M1147.19,380.77l2.92.5,3.57-20.6-3-3.35q8.16-1.23,16.39-2.31l-5.34,28.37,2.92.55-.18.9q-8.71-1.68-17.48-3.16Zm8.43-35.34c.64-3.72,3.54-5.85,7.91-5.06s6.34,3.8,5.63,7.51-3.61,5.84-7.9,5.06S1155,349.22,1155.62,345.43Z" transform="translate(-405.09 -146.66)"/><path class="cls-3" d="M1202.83,392.22c-.08.29-.15.59-.22.89q-8.37-2-16.77-3.89c.06-.3.13-.59.19-.89l2.32.51q1.89-8.41,3.76-16.82c1-4.36.17-6.07-2.28-6.6a9.19,9.19,0,0,0-3.76.06l-4.68,21.84,2.32.5c-.06.3-.13.6-.19.9q-8.41-1.83-16.84-3.47c0-.3.11-.6.17-.9l2.91.57,4.08-20.5q-1.42-1.73-2.87-3.43,8.19-1,16.46-1.89l-1.2,5.6c4.56-2.31,8.53-3.72,12.62-2.78,5.1,1.17,7,4.76,5.66,10.44q-2.28,9.58-4.58,19.16Z" transform="translate(-405.09 -146.66)"/><path class="cls-3" d="M1245.14,371.06l-2.61,9-.08,0a37.61,37.61,0,0,0-8.14-6.41,10.35,10.35,0,0,1,1.84,9.79c-1.77,6.23-7.89,9.53-15.87,7.42a16.55,16.55,0,0,1-7.84-4.46c-1.38,3-.17,5.79,4.86,7.1l6.63,1.77c6.7,1.82,9.75,4.86,8.38,9.64-1.82,6.28-9.94,8.33-20.32,5.62-8.3-2.16-12-4.79-11.13-8.3.41-1.67,2.14-2.84,4.77-3.13a6.79,6.79,0,0,1-.63-5.35c.76-3.06,2.74-5.41,7-7.87a10.35,10.35,0,0,1-2.13-9.44c1.5-6.12,7.73-9.8,16.39-7.51a15.83,15.83,0,0,1,7.4,4c3.65-.71,7.35-1.34,11.41-2Zm-39.23,28.46c.09,5.51,4,9,9.78,10.56,4.35,1.15,8.22.57,8.79-1.48.35-1.26-1.11-2.39-5.61-3.6l-6.15-1.62C1209.35,402.51,1207.14,401.18,1205.91,399.52Zm21.9-10.91c.49-1.76.22-4.87-1.14-9.68-1.92-6.74-3.53-9.17-5.37-9.65a2.36,2.36,0,0,0-3,1.84c-.49,1.95,0,5,1.28,9.68,1.86,6.82,3.57,9.17,5.31,9.65C1226.28,390.81,1227.37,390.22,1227.81,388.61Z" transform="translate(-405.09 -146.66)"/><text class="cls-4" transform="translate(416.89 907.52)">P</text></svg>